# xmcd
#
# Track frame offsets: 
#        150
#        12757
#        28235
#        42377
#        57037
#        73187
#        89810
#        102660
#        116375
#        132305
#
# Disc length: 1966 seconds
#
# Revision: 3
# Processed by: cddbd v1.5PL3 Copyright (c) Steve Scherf et al.
# Submitted via: ExactAudioCopy v0.90b4
#
DISCID=8e07ac0a
DTITLE=Keith Whitley - Remembered (The Encore Collection)
DYEAR=1998
DGENRE=Country
TTITLE0=Brother Jukebox
TTITLE1=Miami, My Amy
TTITLE2=Honky Tonk Heart
TTITLE3=I Wonder Do You Think Of Me
TTITLE4=I'm No Stranger To The Rain
TTITLE5=When You Say Nothing At All
TTITLE6=Hard Livin'
TTITLE7=Tell Lorrie I Love Her
TTITLE8=Til A Tear Becomes A Rose
TTITLE9=Turn Me To Love
EXTD=
EXTT0=
EXTT1=
EXTT2=
EXTT3=
EXTT4=
EXTT5=
EXTT6=
EXTT7=
EXTT8=
EXTT9=
PLAYORDER=
